<svg xmlns="http://www.w3.org/2000/svg" height="512pt" version="1.1" viewBox="0 0 512 512" width="512pt">
<g id="surface1">
<path d="M 256 151 C 223 151 196 178 196 211 C 196 244 223 271 256 271 C 289 271 316 244 316 211 C 316 178 289 151 256 151 Z M 256 151 " style=" stroke:none;fill-rule:nonzero;fill:rgb(70.980392%,72.941176%,95.294118%);fill-opacity:1;" />
<path d="M 256 271 L 256 151 C 289 151 316 178 316 211 C 316 244 289 271 256 271 Z M 256 271 " style=" stroke:none;fill-rule:nonzero;fill:rgb(59.215686%,62.352941%,93.72549%);fill-opacity:1;" />
<path d="M 361 376 L 361 451 L 151 451 L 151 376 C 151 323.199219 190.300781 280 241 272.5 L 256 301 L 271 272.5 C 321.699219 280 361 323.199219 361 376 Z M 361 376 " style=" stroke:none;fill-rule:nonzero;fill:rgb(59.215686%,62.352941%,93.72549%);fill-opacity:1;" />
<path d="M 361 376 L 361 451 L 256 451 L 256 301 L 271 272.5 C 321.699219 280 361 323.199219 361 376 Z M 361 376 " style=" stroke:none;fill-rule:nonzero;fill:rgb(47.45098%,51.764706%,92.156863%);fill-opacity:1;" />
<path d="M 271 272.5 L 271 361 L 241 361 L 241 272.5 C 245.800781 271.898438 250.902344 271 256 271 C 261.097656 271 266.199219 271.898438 271 272.5 Z M 271 272.5 " style=" stroke:none;fill-rule:nonzero;fill:rgb(24.313725%,34.901961%,34.901961%);fill-opacity:1;" />
<path d="M 271 272.5 L 271 361 L 256 361 L 256 271 C 261.097656 271 266.199219 271.898438 271 272.5 Z M 271 272.5 " style=" stroke:none;fill-rule:nonzero;fill:rgb(21.960784%,28.627451%,28.627451%);fill-opacity:1;" />
<path d="M 475 205.300781 C 469.601562 181 460 157.898438 446.800781 136.898438 L 465.699219 105.097656 L 406.902344 46.300781 L 375.097656 65.199219 C 354.101562 52 331 42.398438 306.699219 37 L 297.699219 0 L 214.300781 0 L 205.300781 37 C 181 42.398438 157.898438 52 136.902344 65.199219 L 105.097656 46.300781 L 46.300781 105.097656 L 65.199219 136.898438 C 52 157.898438 42.398438 181 37 205.300781 L 0 214.300781 L 0 297.699219 L 37 306.699219 C 42.398438 331 52 354.097656 65.199219 375.097656 L 46.300781 406.898438 L 105.097656 465.699219 L 136.902344 446.800781 C 157.898438 460 181 469.601562 205.300781 475 L 214.300781 512 L 297.699219 512 L 306.699219 475 C 331 469.601562 354.101562 460 375.097656 446.800781 L 406.902344 465.699219 L 465.699219 406.898438 L 446.800781 375.097656 C 460 354.097656 469.601562 331 475 306.699219 L 512 297.699219 L 512 214.300781 Z M 256 421 C 165.097656 421 91 346.898438 91 256 C 91 165.097656 165.097656 91 256 91 C 346.902344 91 421 165.097656 421 256 C 421 346.898438 346.902344 421 256 421 Z M 256 421 " style=" stroke:none;fill-rule:nonzero;fill:rgb(87.058824%,92.54902%,94.509804%);fill-opacity:1;" />
<path d="M 512 214.300781 L 512 297.699219 L 475 306.699219 C 469.601562 331 460 354.097656 446.800781 375.097656 L 465.699219 406.898438 L 406.902344 465.699219 L 375.097656 446.800781 C 354.101562 460 331 469.601562 306.699219 475 L 297.699219 512 L 256 512 L 256 421 C 346.902344 421 421 346.898438 421 256 C 421 165.097656 346.902344 91 256 91 L 256 0 L 297.699219 0 L 306.699219 37 C 331 42.398438 354.101562 52 375.097656 65.199219 L 406.902344 46.300781 L 465.699219 105.097656 L 446.800781 136.898438 C 460 157.898438 469.601562 181 475 205.300781 Z M 512 214.300781 " style=" stroke:none;fill-rule:nonzero;fill:rgb(65.882353%,82.745098%,84.705882%);fill-opacity:1;" />
</g>
</svg>