<svg height="512pt" viewBox="-47 0 511 512" width="512pt" xmlns="http://www.w3.org/2000/svg"><g fill="#ececee"><path d="m301.410156 405.871094c-4.222656-19.160156-23.1875-31.269532-42.34375-27.046875-19.167968 4.222656-31.277344 23.175781-27.054687 42.34375l11.226562 50.914062 36.445313 12.542969 33.058594-27.375zm0 0"/><path d="m117.636719 405.871094c4.222656-19.160156 23.1875-31.269532 42.34375-27.046875 19.167969 4.222656 31.28125 23.175781 27.058593 42.34375l-11.230468 50.914062-36.445313 12.542969-33.054687-27.375zm0 0"/><path d="m94.226562 332.144531c35.085938-19.113281 76.375-28.667969 91.828126-30.984375l-9.757813-65.257812c-2.792969.417968-57.105469 8.8125-108.789063 35.707031zm0 0"/><path d="m324.820312 332.144531c-35.085937-19.113281-76.375-28.667969-91.824218-30.984375l9.753906-65.257812c2.792969.417968 57.105469 8.8125 108.792969 35.707031zm0 0"/></g><path d="m301.410156 405.871094c-4.222656-19.15625-23.1875-31.269532-42.34375-27.046875-19.167968 4.226562-31.277344 23.179687-27.054687 42.347656l8.578125 38.902344c27.984375-2.761719 51.722656-8.832031 69.519531-14.757813zm0 0" fill="#dadadc"/><path d="m159.980469 378.824219c-19.15625-4.222657-38.121094 7.890625-42.34375 27.046875l-8.699219 39.445312c17.800781 5.925782 41.535156 11.996094 69.519531 14.757813l8.578125-38.902344c4.226563-19.167969-7.886718-38.125-27.054687-42.347656zm0 0" fill="#dadadc"/><path d="m334.660156 389.371094c-12.164062-71.199219-51.015625-125.773438-51.015625-125.773438h-148.242187s-38.847656 54.574219-51.011719 125.773438c-1.726563 10.105468 3.699219 20.105468 13.125 24.132812 20.648437 8.820313 60.683594 22.351563 112.007813 22.351563 51.324218 0 91.363281-13.53125 112.007812-22.351563 9.429688-4.027344 14.855469-14.027344 13.128906-24.132812zm0 0" fill="#91daff"/><path d="m247.59375 372.632812c0 10.507813-4.261719 20.027344-11.144531 26.921876-6.894531 6.882812-16.40625 11.148437-26.925781 11.148437-21.023438 0-38.070313-17.046875-38.070313-38.070313l38.070313-11.960937zm0 0" fill="#4d9ae8"/><path d="m247.59375 357.382812v15.25h-76.140625v-15.25c0-4.789062 3.878906-8.667968 8.671875-8.667968h58.800781c4.789063 0 8.667969 3.878906 8.667969 8.667968zm0 0" fill="#ececee"/><path d="m26.484375 339.453125c6.484375 8.582031 16.355469 13.109375 26.355469 13.109375 6.921875 0 13.90625-2.175781 19.855468-6.671875 6.671876-5.046875 13.960938-9.613281 21.535157-13.734375v-.011719c-.582031-27.957031-15.796875-48.984375-26.722657-60.535156-11.886718 6.191406-23.632812 13.347656-34.585937 21.621094-14.542969 10.988281-17.421875 31.675781-6.4375 46.222656zm0 0" fill="#ffc6b3"/><path d="m392.566406 339.453125c-6.488281 8.582031-16.355468 13.109375-26.355468 13.109375-6.925782 0-13.910157-2.175781-19.859376-6.671875-6.667968-5.046875-13.957031-9.613281-21.53125-13.734375v-.011719c.578126-27.957031 15.796876-48.984375 26.71875-60.535156 11.890626 6.191406 23.636719 13.347656 34.589844 21.621094 14.539063 10.988281 17.421875 31.675781 6.4375 46.222656zm0 0" fill="#ffc6b3"/><path d="m367.199219 71.691406c2.0625 0 6.890625 5.492188 8.304687 6.722656 26.191406 22.792969 44.46875 57.535157 42.957032 94.59375-1.734376 42.550782-33.796876 76.335938-75.085938 60.410157-2.179688-.839844-16.5625-6.230469-16.5625-8.476563 0-.003906 0-82.648437 0-82.648437l20.273438-70.601563zm0 0" fill="#de4b64"/><path d="m51.851562 71.691406c-2.0625 0-6.890624 5.492188-8.304687 6.722656-26.191406 22.792969-44.472656 57.535157-42.960937 94.59375 1.738281 42.550782 33.800781 76.335938 75.085937 60.410157 2.183594-.839844 16.566406-6.230469 16.566406-8.476563 0-.003906 0-82.648437 0-82.648437l-20.273437-70.601563s-20.109375 0-20.113282 0zm0 0" fill="#de4b64"/><path d="m247.59375 283.566406c0 21.027344-17.042969 38.070313-38.070312 38.070313-21.023438 0-38.070313-17.042969-38.070313-38.070313 0-21.023437 17.046875-38.070312 38.070313-38.070312 21.027343 0 38.070312 17.046875 38.070312 38.070312zm0 0" fill="#ffddcb"/><path d="m353.316406 125.011719c.660156 5.503906 1.007813 11.097656 1.007813 16.773437 0 78.300782-64.832031 141.78125-144.800781 141.78125s-144.796876-63.480468-144.796876-141.78125c0-5.675781.34375-11.269531 1.003907-16.773437l143.792969-88.953125zm0 0" fill="#ffddcb"/><path d="m95.628906 141.785156c0-5.675781.347656-21.574218 1.007813-27.074218l127.390625-69.679688-14.503906-8.972656-143.792969 88.953125c-.660157 5.503906-1.003907 11.097656-1.003907 16.773437 0 78.300782 64.828126 141.78125 144.796876 141.78125 5.222656 0 10.375-.277344 15.453124-.804687-72.703124-7.550781-129.347656-67.785157-129.347656-140.976563zm0 0" fill="#ffc6b3"/><path d="m281.246094 166.539062c-4.269532 0-7.726563-3.460937-7.726563-7.726562v-13.945312c0-4.269532 3.457031-7.726563 7.726563-7.726563 4.265625 0 7.726562 3.457031 7.726562 7.726563v13.945312c0 4.265625-3.460937 7.726562-7.726562 7.726562zm0 0" fill="#3a3c4c"/><path d="m290.742188 187.035156h-18.996094c-4.265625 0-7.726563-3.457031-7.726563-7.726562 0-4.265625 3.460938-7.726563 7.726563-7.726563h18.996094c4.269531 0 7.726562 3.460938 7.726562 7.726563 0 4.269531-3.460938 7.726562-7.726562 7.726562zm0 0" fill="#ff9ec0"/><path d="m137.804688 166.539062c-4.269532 0-7.726563-3.460937-7.726563-7.726562v-13.945312c0-4.269532 3.457031-7.726563 7.726563-7.726563 4.269531 0 7.726562 3.457031 7.726562 7.726563v13.945312c0 4.265625-3.457031 7.726562-7.726562 7.726562zm0 0" fill="#3a3c4c"/><path d="m147.300781 187.035156h-18.992187c-4.269532 0-7.726563-3.457031-7.726563-7.726562 0-4.265625 3.457031-7.726563 7.726563-7.726563h18.992187c4.269531 0 7.726563 3.460938 7.726563 7.726563 0 4.269531-3.457032 7.726562-7.726563 7.726562zm0 0" fill="#ff9ec0"/><path d="m209.523438 186.246094c-7.230469 0-14.023438-3.03125-18.644532-8.316406-2.808594-3.210938-2.480468-8.09375.734375-10.902344 3.210938-2.808594 8.089844-2.480469 10.902344.734375 1.683594 1.925781 4.238281 3.03125 7.007813 3.03125 2.769531 0 5.324218-1.105469 7.011718-3.03125 2.808594-3.214844 7.6875-3.542969 10.902344-.734375 3.210938 2.808594 3.539062 7.6875.730469 10.902344-4.617188 5.285156-11.414063 8.316406-18.644531 8.316406zm0 0" fill="#3a3c4c"/><path d="m367.898438 65.335938c0 16.171874-13.109376 29.277343-29.277344 29.277343-16.171875 0-29.28125-13.105469-29.28125-29.277343 0-16.167969 13.109375-29.277344 29.28125-29.277344 16.167968 0 29.277344 13.109375 29.277344 29.277344zm0 0" fill="#f9da60"/><path d="m109.707031 65.335938c0 16.171874-13.109375 29.277343-29.277343 29.277343-16.171876 0-29.277344-13.105469-29.277344-29.277343 0-16.167969 13.105468-29.277344 29.277344-29.277344 16.167968 0 29.277343 13.109375 29.277343 29.277344zm0 0" fill="#f9da60"/><path d="m353.316406 125.011719s-92.523437-7.085938-143.792968-62.921875c-51.265626 55.835937-143.792969 62.921875-143.792969 62.921875 8.476562-70.402344 69.621093-125.011719 143.792969-125.011719 74.171874 0 135.320312 54.609375 143.792968 125.011719zm0 0" fill="#ff6881"/><path d="m288.234375 511.167969c-2.570313.566406-5.148437.832031-7.675781.832031-16.3125 0-31.015625-11.300781-34.667969-27.886719l-2.652344-12.03125 69.503907-14.832031 2.546874 11.5625c4.222657 19.167969-7.886718 38.132812-27.054687 42.355469zm0 0" fill="#485b73"/><path d="m130.816406 511.167969c2.566406.566406 5.144532.832031 7.675782.832031 16.3125 0 31.011718-11.300781 34.667968-27.886719l2.648438-12.03125-69.5-14.832031-2.546875 11.5625c-4.222657 19.167969 7.886719 38.132812 27.054687 42.355469zm0 0" fill="#485b73"/></svg>