<?xml version="1.0"?>
<svg xmlns="http://www.w3.org/2000/svg" xmlns:xlink="http://www.w3.org/1999/xlink" version="1.1" id="Capa_1" x="0px" y="0px" viewBox="0 0 366.52 366.52" style="enable-background:new 0 0 366.52 366.52;" xml:space="preserve" width="512px" height="512px" class=""><g><g>
	<g>
		<path d="M172.56,230.06v-93.72c0.303-3.965-0.913-7.897-3.4-11c-2.272-2.42-5.483-3.734-8.8-3.6    c-3.277-0.125-6.441,1.208-8.64,3.64c-2.407,3.124-3.575,7.027-3.28,10.96v34.12h-52v-34.12c0.298-3.965-0.916-7.895-3.4-11    c-2.272-2.42-5.483-3.734-8.8-3.6c-3.306-0.161-6.509,1.176-8.72,3.64c-2.378,3.135-3.517,7.037-3.2,10.96v93.76    c-0.294,3.939,0.858,7.849,3.24,11c2.196,2.493,5.401,3.86,8.72,3.72c3.314,0.096,6.508-1.246,8.76-3.68    c2.501-3.111,3.717-7.061,3.4-11.04v-40h52v40c-0.294,3.939,0.858,7.849,3.24,11c2.203,2.478,5.407,3.83,8.72,3.68    c3.314,0.096,6.508-1.246,8.76-3.68C171.661,237.989,172.877,234.039,172.56,230.06z" data-original="#000000" class="active-path" data-old_color="#000000" fill="#32004E"/>
	</g>
</g><g>
	<g>
		<path d="M281.92,134.54c-4.587-4.062-10.069-6.982-16-8.52c-6.89-1.64-13.959-2.406-21.04-2.28h-31.36    c-6.888-1.264-13.496,3.296-14.76,10.184c-0.278,1.513-0.278,3.063,0,4.576v87.36c-0.095,3.164,0.242,6.327,1,9.4    c0.646,2.353,2.2,4.353,4.32,5.56v0c3.077,1.516,6.496,2.206,9.92,2h31.44c4.94,0.04,9.875-0.308,14.76-1.04    c4.227-0.647,8.346-1.872,12.24-3.64c3.825-1.743,7.36-4.063,10.48-6.88c4.007-3.664,7.385-7.961,10-12.72    c2.688-5.025,4.628-10.415,5.76-16c1.289-6.439,1.906-12.994,1.84-19.56C300.52,161.327,294.32,145.18,281.92,134.54z     M264.12,218.1c-1.861,1.596-4.005,2.831-6.32,3.64c-2.286,0.818-4.664,1.355-7.08,1.6c-2.28,0.24-5.44,0.32-9.44,0.32h-18.44    v-80.8h16c6.363-0.119,12.71,0.69,18.84,2.4c5.615,1.948,10.296,5.93,13.12,11.16c3.547,5.84,5.32,14.64,5.32,26.4    C276.12,199.513,272.12,211.273,264.12,218.1z" data-original="#000000" class="active-path" data-old_color="#000000" fill="#32004E"/>
	</g>
</g><g>
	<g>
		<path d="M332.92,49.22H33.6C15.071,49.286,0.066,64.291,0,82.82V283.7c0.066,18.529,15.071,33.534,33.6,33.6h299.32    c18.529-0.066,33.534-15.071,33.6-33.6V82.82C366.454,64.291,351.449,49.286,332.92,49.22z M335.24,260.3    c-0.044,14.209-11.551,25.716-25.76,25.76h-252c-14.269,0.221-26.016-11.167-26.237-25.437c-0.002-0.108-0.003-0.215-0.003-0.323    V106.22C31.284,92.011,42.791,80.504,57,80.46h252c14.269-0.221,26.016,11.167,26.237,25.437c0.002,0.108,0.003,0.215,0.003,0.323    V260.3z" data-original="#000000" class="active-path" data-old_color="#000000" fill="#32004E"/>
	</g>
</g></g> </svg>
