<svg xmlns="http://www.w3.org/2000/svg" xmlns:xlink="http://www.w3.org/1999/xlink" width="82" height="48" viewBox="0 0 82 48">
    <defs>
        <path id="a" d="M.049.057h1.287v1.335H.05z"/>
    </defs>
    <g fill="none" fill-rule="evenodd">
        <path fill="#FFFFFE" d="M39.924 40.043h39.92V0h-39.92z"/>
        <path fill="#FFFFFE" d="M39.924 40.043h39.92V0h-39.92z"/>
        <path fill="#000105" d="M0 40.043h39.924V0H0z"/>
        <path fill="#FFFFFE" d="M26.648 23.213a6.402 6.402 0 0 1-5.566 3.244c-3.542 0-6.416-2.882-6.416-6.435 0-3.554 2.874-6.435 6.416-6.435a6.404 6.404 0 0 1 5.566 3.243l9.907-5.675c-3.074-5.38-8.848-9.01-15.473-9.01-9.842 0-17.82 8.004-17.82 17.877S11.24 37.9 21.081 37.9c6.625 0 12.4-3.628 15.473-9.009l-9.907-5.677z"/>
        <path fill="#000105" d="M76.992 37.183V2.861H65.586v14.3l-11.407-14.3H42.772v34.322H54.18V22.882l11.407 14.301z"/>
        <path fill="#FFFFFE" d="M60.113 46.487l.575 1.321h1.355l.933-4.905h-1.641l-.41 2.154-.812-1.982-.817 1.982-.407-2.154h-1.64l.932 4.905h1.352zM56.854 42.903h-4.89v1.43h1.528v3.473h1.832v-3.472h1.53zM65.637 46.275a.922.922 0 0 1-.92-.92.917.917 0 1 1 1.835 0c0 .509-.409.92-.915.92m0-3.474a2.55 2.55 0 0 0-2.544 2.554 2.55 2.55 0 0 0 2.544 2.554 2.55 2.55 0 0 0 2.545-2.554 2.55 2.55 0 0 0-2.545-2.554M46.465 47.806v-4.903h-1.629v2.043l-1.629-2.043h-1.629v4.903h1.63v-2.042l1.628 2.042zM51.43 44.334v-1.43h-4.276v4.902h4.276V46.48h-2.65v-.493h2.243V44.76H48.78v-.427zM70.296 44.334h1.017a.41.41 0 0 1 .41.409.41.41 0 0 1-.41.407h-1.017v-.816zm3.055.306c0-.89-.702-1.737-1.831-1.737h-2.854v4.903h1.63v-1.429h.518l.716 1.429h1.821l-.97-1.63c.568-.29.97-.868.97-1.536zM78.797 42.903h-2.092l-1.216 1.607v-1.607h-1.628v4.903h1.628V45.98l1.216 1.826h2.092l-1.898-2.544zM8.479 45.768l.429-1.506.429 1.506h-.858zm1.446 2.044h1.733l-1.529-4.905H7.687l-1.53 4.905h1.74l.234-.82h1.56l.234.82zM22.136 42.907H17.25v1.431h1.524v3.474h1.837v-3.474h1.525zM4.739 45.853a1.01 1.01 0 0 1-1.883-.502 1.01 1.01 0 0 1 1.008-1.012c.376 0 .7.206.875.512l1.327-.767a2.541 2.541 0 0 0-2.21-1.288 2.549 2.549 0 0 0-2.541 2.554 2.548 2.548 0 0 0 2.542 2.555 2.54 2.54 0 0 0 2.21-1.287l-1.328-.765zM24.886 46.279a.918.918 0 1 1 .004-1.837.918.918 0 0 1-.004 1.837m0-3.474a2.548 2.548 0 0 0-2.543 2.554 2.55 2.55 0 0 0 2.543 2.555 2.55 2.55 0 0 0 2.545-2.555 2.548 2.548 0 0 0-2.545-2.554M30.386 46.279a.917.917 0 0 1-.915-.92.916.916 0 1 1 1.834 0 .92.92 0 0 1-.919.92m0-3.474a2.55 2.55 0 0 0-2.546 2.554 2.552 2.552 0 0 0 2.546 2.555 2.552 2.552 0 0 0 2.548-2.555 2.55 2.55 0 0 0-2.548-2.554M38.305 47.812v-4.904h-1.629v2.043l-1.63-2.043h-1.628v4.904h1.629v-2.043l1.63 2.043zM13.764 44.337h1.018c.224 0 .404.184.404.41 0 .225-.18.409-.404.409h-1.018v-.819zm3.054.307c0-.89-.704-1.736-1.834-1.736h-2.852v4.904h1.632v-1.43h.515l.716 1.43h1.823l-.972-1.63c.567-.292.972-.87.972-1.538zM80.395 46.47v.238h-.398v1.098h-.281v-1.098h-.398v-.237z"/>
        <g transform="translate(80.505 46.414)">
            <mask id="b" fill="#fff">
                <use xlink:href="#a"/>
            </mask>
            <path fill="#FFFFFE" d="M.938.057h.399v1.335h-.26V.49c0-.026.004-.062.004-.11V.27L.827 1.392h-.27L.307.27v1.122H.049V.057h.406L.697 1.11.937.057z" mask="url(#b)"/>
        </g>
    </g>
</svg>
