<svg xmlns="http://www.w3.org/2000/svg" viewBox="0 0 131.1 166.7"><path d="M28.8 18.8c6.8 3.2 11.3 7.1 12.1 7.7-.3-1.8-1.7-10.3-2.6-15.5 3.9 2.7 13.3 9.2 16.3 11.3C55.8 18.5 60.2 6 60.2 6s7.8 12.5 9 14.6C70.9 19 80.1 8.6 82.5 6c.5 5.9.9 14.5 1.1 15.7.5-.6 4.1-5.6 10-10.3-2.6 5.1-3.8 12.1-4.4 17.8-5.9-1.7-12.1-2.6-18.4-2.6-12.2 0-23.8 3.2-33.8 8.9-1.7-5.5-4.4-12.3-8.2-16.7zm93.8 107.4l-5.4-6c-1.5 16.1-9.5 29.9-24 39.5l-2.3-8.7c-12.4 8.9-33.5 14.6-51.7 4.4 2.3-11.5 4.2-23.2 0-37.2-10.1 15.5-19 21.7-19 21.7-6.8-11.5-6.2-34.4-4.2-41.2l-11.3 3.5c0-7.7 5.6-24 13.6-33.2l-6.9-1.1c4.8-9.8 11.9-18.2 20.8-24.7-2.7 4.4-2.7 14.6 5 18.5-3.3-5.7-3.6-12.8-.3-16.6 3.5-3.8 9.2-2.4 12.8.5-1.1-3.2-4.4-7.2-9-7.5 9-4.7 19.5-7.2 30.3-7.2 2.1 0 4.1.2 6 .3 3.2 1.2 7.8 5.7 10 8.6 0 0 .2-3.3-1.7-7.2 11.8 2.9 17.5 7.7 19.8 10 .5 5.1 2 8.1 4.1 13-3.8-4.2-13.4-11.2-18.1-12.8 0 0-.5 4.4-2 6.5-9.2-6.6-13.6-8.3-13.6-8.3-10.2 1-16.5 5-20.1 8l3 2.6c-6 1.8-10 7.1-10 7.1 0 .2 5.4.9 5.4.9s-.6 6.3 7.4 10.3c6.8 3.3 16.4-.8 25.6 2.9-6-6.9-10.1-10.1-10.1-10.1s-2.4-.5-4.1-.5c-2.1 0-5.3.5-8.6-.9-1.7-.6-3.6-1.8-5-2.7 0 0 4.2-4.4 10.4-5.3 0 0 5.6 1.5 10 4.8 2.9-2.9 6-2.7 6-2.7s-3 2.9-2.1 6.2c4.4 3.9 9.2 9.5 9.2 9.5 4.8-2.7 15.4-2.1 17.6.5-2.7-3.6-6.8-6.5-9.8-9-.3-1.4-3.8-6-4.2-6.5 0 0 3.2 1.1 6 3.5.8-1.2 2.4-2.4 4.4-2.9 2.1 1.8 2.6 4.5 2.4 5-.9 1.2-2 1.7-2 1.7L112 69l.5-4.1c11.9 16.9 18.4 36.6 10.1 61.3zm-22.4-36.5V81s-3.9-1.2-8.1-4.5c-8.4 1.2-18.5 9.7-18.5 9.7s3.5 6.5 7.2 13.6c6.6.7 16.4-7.5 19.4-10.1zm8.4 15.8s-.6-3.6-3.6-6.9l-6.5.2s-8.9 7.5-14.2 7.7l4.5 8.4c3-.6 8.1-3 10.3-5.4 0 0 1.4 4.5 1.1 9.8 3-1.9 7.1-6.5 8.4-13.8zm2.7-28.8c-3.3 2.7-6 4.4-6 4.4v8.7c2.4 2.6 4.7 4.8 6.5 8.7 3.3-5.8 2.5-14.5-.5-21.8z" fill="#360d3a"/></svg>