<svg id="katman_1" data-name="katman 1" xmlns="http://www.w3.org/2000/svg" viewBox="0 0 819.57 531.99"><defs><style>.cls-1{fill:#360c3a;}</style></defs><title>c2</title><path class="cls-1" d="M597.23,251.55c15.6,10.89,25,24.2,25.74,27.82-.78-6-3.12-35.07-5.46-53.22,8.57,9.68,28.85,31.45,36.65,38.71,3.12-13.31,12.47-56.85,12.47-56.85s17.94,43.54,20.28,49.59c3.12-4.84,24.17-39.91,28.85-49.59.78,20.56,2.34,49.59,3.12,54.43.78-3.63,8.58-20.56,21.84-33.87-6.24,18.15-8.58,39.92-9.36,61.69-13.26-4.84-25.74-9.68-41.33-9.68-27.29,0-53,10.89-74.86,31.45C611.27,290.26,605,267.28,597.23,251.55ZM805.44,622.9,793,601.12c-3.12,56.86-20.27,102.82-53.8,136.69l-5.46-31.45c-27.3,31.45-74.86,49.59-114.63,14.51,5.45-39.91,9.35-81,0-129.42-21.84,54.43-42.89,76.2-42.89,76.2-14.82-39.91-14-118.54-8.58-141.52l-24.17,14.52c0-27.83,12.47-83.47,30.41-114.92l-15.6-4.83C568.38,388.24,584,358,605,335c-6.24,14.51-6.24,49.59,11.7,62.89-7-20.56-8.58-43.54-.78-58.06,8.57-13.3,20.27-8.46,28.07,1.21-3.12-10.88-9.36-25.4-20.27-25.4,20.27-15.72,42.88-25.4,66.28-25.4a61.5,61.5,0,0,1,14,1.21c7,4.84,17.93,20.56,21.83,30.24a133.92,133.92,0,0,0-3.12-25.4c25.73,9.68,38.21,27.82,43.67,33.87.78,18.14,3.9,29,8.58,44.75-8.58-14.51-30.42-38.7-40.55-43.54,0,0-.78,14.51-3.9,23-20.28-23-30.41-29-30.41-29-21.84,4.84-37.43,19.35-44.45,30.24l7,9.68c-14,6-21.84,24.19-21.84,24.19l12.48,3.63s-.78,21.77,16.37,33.86c14.82,13.31,37.43-3.62,56.93,9.68-14-24.19-21.84-33.87-21.84-33.87a53.7,53.7,0,0,0-9.35-1.21c-3.9,0-11.7,1.21-19.5-3.63-3.12-3.62-8.58-6-11.69-9.67,0,0,9.35-14.52,22.61-19.36a61.65,61.65,0,0,1,21.83,15.73c7-9.68,13.26-9.68,13.26-9.68s-7,9.68-3.9,21.77c9.36,13.31,20.28,32.66,20.28,32.66,11.69-9.67,34.31-6,38.21,1.21-6.24-13.3-14.82-23-21.06-31.45-.78-4.83-8.58-20.56-9.36-23a78.09,78.09,0,0,1,14,13.31c2.34-4.84,5.46-8.47,9.36-9.68,5.46,6.05,6.24,15.73,5.46,18.14-3.12,4.84-3.9,4.84-3.9,4.84l11.7,19.36.78-13.31C809.34,469.28,824.15,537,805.44,622.9Zm-49.91-127V464.44s-8.58-4.84-18.71-15.72c-19.5,4.84-41.33,32.66-41.33,32.66s8.58,23,16.37,47.17C727.46,532.18,748.51,505.57,755.53,495.89Zm18.72,54.43s-2.34-13.3-8.58-24.19H750.85S730.58,554,718.88,554c0,0,7,19.35,10.14,30.24,7-3.63,18.71-10.89,22.61-19.35a190,190,0,0,1,3.12,32.66C762.55,591.45,771.13,576.93,774.25,550.32Zm6.24-99.18a187.56,187.56,0,0,1-14,14.51V497.1c5.46,9.68,10.14,15.72,14.82,31.45C789.06,506.78,787.5,477.75,780.49,451.14Zm78.76,26.61v-179h37.43C920.85,298.73,938,320.5,938,358s-17.94,59.27-41.33,59.27h-14v58.06C883.42,477.75,859.25,477.75,859.25,477.75Zm23.39-91.93H895.9c11.69,0,20.27-9.68,20.27-27.82s-8.58-27.82-20.27-27.82H882.64ZM1239,673.7c-16.37,0-37.43-14.52-37.43-58.06v-62.9h20.28V612c0,20.56,6.23,30.24,16.37,30.24,9.36,0,16.38-10.89,16.38-30.24V552.74h20.27v62.9c.78,42.34-19.49,58.06-35.87,58.06m-181.69,0c-20.28,0-37.43-29-37.43-61.69s17.93-59.27,37.43-59.27c11.69,0,19.49,6,22.61,18.14l3.12-15.72h18.72V672.49h-18.72l-2.34-16.93c-3.9,9.67-12.48,18.14-23.39,18.14m4.68-93.14c-11.7,0-20.28,13.31-20.28,31.45s8.58,31.45,20.28,31.45,20.27-13.31,20.27-31.45-8.58-31.45-20.27-31.45M1200,358h20.28V475.33H1200Zm11.7-15.73c-8.58,0-13.26-9.67-13.26-20.56,0-13.31,6.24-20.56,13.26-20.56,8.58,0,13.25,9.67,13.25,20.56-.78,12.1-6.23,20.56-13.25,20.56m-43.67,65.32c0-13.3-3.9-20.56-12.48-20.56s-12.47,8.47-12.47,21.77v68.95h-20.28V406.38c0-13.3-3.9-20.56-12.48-20.56s-12.47,8.47-12.47,21.77v69h-20.28V359.21h18.72l3.12,15.72s3.9-19.35,19.49-19.35c8.58,0,16.38,4.84,21.06,18.14l.78,1.21.78-1.21c8.57-15.72,16.37-18.14,21.83-18.14,16.38,0,27.29,19.35,27.29,44.75v76.21h-20.27V405.17C1171.17,407.59,1168.05,407.59,1168.05,407.59Zm147.38,70.16V360.42h18.72l3.12,18.14c3.12-10.89,10.13-19.35,19.49-19.35a11.55,11.55,0,0,1,6.24,1.21v31.45c-3.12-1.21-5.46-1.21-8.58-1.21-10.14,0-17.93,9.67-17.93,29v58.06Zm-370.41,0V360.42h18.72l3.12,18.14c3.12-10.89,10.14-19.35,19.49-19.35a11.55,11.55,0,0,1,6.24,1.21v31.45c-3.9-2.42-6.24-2.42-9.35-2.42-10.14,0-17.94,9.67-17.94,29v58.06ZM859.25,671.28V495.89h21.83V637.41h49.13v32.66Zm116.19,2.42c-22.62,0-40.55-25.4-40.55-61.69,0-32.66,15.59-62.9,40.55-62.9,18.71,0,37.43,21.77,37.43,61.69a100.29,100.29,0,0,1-.78,13.31H956.72c2.34,13.3,9.36,21.77,19.5,21.77,8.57,0,14.81-4.84,20.27-13.31l13.26,20.57c-8.58,12.09-21.06,20.56-34.31,20.56m-.78-96.77c-8.58,0-16.38,8.47-18.72,20.57H991c-.78-10.89-7.79-20.57-16.37-20.57M1324,673.7c-22.61,0-40.55-25.4-40.55-61.69,0-32.66,15.6-62.9,40.55-62.9,18.71,0,37.43,21.77,37.43,61.69a100.29,100.29,0,0,1-.78,13.31h-56.15c2.34,13.3,9.36,21.77,19.5,21.77,8.58,0,14.82-4.84,20.27-13.31l13.26,20.57c-8.58,12.09-20.27,20.56-33.53,20.56m-.78-96.77c-8.58,0-16.38,8.47-18.72,20.57h35.1c-.78-10.89-7-20.57-16.38-20.57m-53-98c-22.61,0-40.55-25.4-40.55-61.69,0-32.66,15.6-62.9,40.55-62.9,18.72,0,37.43,21.77,37.43,61.69a100.09,100.09,0,0,1-.78,13.3h-56.14c2.34,13.31,9.36,21.78,19.49,21.78,8.58,0,14.82-4.84,20.28-13.31l13.25,20.56c-8.57,12.1-21,20.57-33.53,20.57m-1.56-95.56c-8.57,0-16.37,8.47-18.71,20.56H1285c-.78-10.88-7.8-20.56-16.38-20.56M1033.14,479c-22.61,0-40.55-25.4-40.55-61.69,0-32.66,15.6-62.9,40.55-62.9,18.72,0,37.43,21.77,37.43,61.69a100.09,100.09,0,0,1-.78,13.3h-56.14c2.34,13.31,9.36,21.78,19.49,21.78,8.58,0,14.82-4.84,20.28-13.31l13.25,20.56c-9.35,12.1-20.27,20.57-33.53,20.57m-.78-95.56c-8.58,0-16.37,8.47-18.71,20.56h35.09c-.78-10.88-8.58-20.56-16.38-20.56m119.31,197.16c-11.69,0-20.27,13.31-20.27,31.45s8.58,31.45,20.27,31.45S1172,630.15,1172,612s-8.58-31.45-20.28-31.45m19.5-13.3,3.12-14.52H1193V664c0,21.78-3.9,37.5-13.25,49.6-7,8.46-16.38,14.51-28.08,14.51-15.59,0-27.29-8.47-36.65-21.77L1127.5,681c6.24,8.46,13.26,15.72,22.61,15.72,15.6,0,21.84-13.3,21.84-30.24V658c-6.24,10.88-14,14.51-21.06,14.51-21.05,0-38.21-27.82-38.21-61.69s17.94-59.27,38.21-59.27c7.8-1.21,15.6,6.05,20.28,15.73" transform="translate(-543.43 -208.01)"/></svg>