<?xml version="1.0" encoding="UTF-8"?>
<svg width="141px" height="50px" viewBox="0 0 141 50" version="1.1" xmlns="http://www.w3.org/2000/svg" xmlns:xlink="http://www.w3.org/1999/xlink">
    <!-- Generator: sketchtool 52.5 (67469) - http://www.bohemiancoding.com/sketch -->
    <title>3950616D-C5D9-47B8-90EE-77FA508B0037</title>
    <desc>Created with sketchtool.</desc>
    <defs>
        <polygon id="path-1" points="0.218366013 0.142222222 17.389281 0.142222222 17.389281 17.3202614 0.218366013 17.3202614"></polygon>
        <polygon id="path-3" points="0 49.6964052 140.889869 49.6964052 140.889869 0 0 0"></polygon>
    </defs>
    <g id="Page-1" stroke="none" stroke-width="1" fill="none" fill-rule="evenodd">
        <g id="Homepage-7.4.1" transform="translate(-649.000000, -89.000000)">
            <g id="Header-1" transform="translate(0.000000, 70.000000)">
                <g id="logo/digiturk_partner" transform="translate(649.000000, 19.000000)">
                    <path d="M41.1497386,24.9749346 C38.4484314,24.9749346 36.2526797,22.775915 36.2526797,20.0651307 C36.2526797,17.3631699 38.4484314,15.1618627 41.1497386,15.1618627 C43.8726144,15.1618627 46.0670588,17.3631699 46.0670588,20.0651307 C46.0670588,22.775915 43.8726144,24.9749346 41.1497386,24.9749346 M41.1379739,9.12558824 C35.3046405,9.12558824 30.1977778,13.8285294 30.1977778,20.0651307 C30.1977778,26.1076144 35.0954902,31.006634 41.1379739,31.006634 C47.1788235,31.006634 52.0771895,26.1076144 52.0771895,20.0651307 C52.0771895,14.0246078 47.1788235,9.12558824 41.1379739,9.12558824" id="Fill-1" fill="#D60A29"></path>
                    <g id="Group-5" transform="translate(32.352941, 32.376144)">
                        <mask id="mask-2" fill="white">
                            <use xlink:href="#path-1"></use>
                        </mask>
                        <g id="Clip-4"></g>
                        <path d="M8.79679739,12.2758824 C6.84810458,12.2758824 5.27130719,10.6915686 5.27130719,8.73699346 C5.27130719,6.79091503 6.84810458,5.19091503 8.79679739,5.19091503 C10.7595425,5.19091503 12.3422222,6.79091503 12.3422222,8.73699346 C12.3422222,10.6915686 10.7595425,12.2758824 8.79679739,12.2758824 M8.79679739,0.142222222 C4.06542484,0.142222222 0.218366013,3.99647059 0.218366013,8.73699346 C0.218366013,13.474902 4.06542484,17.3203268 8.79679739,17.3203268 C13.5530065,17.3203268 17.389281,13.474902 17.389281,8.73699346 C17.389281,3.99647059 13.5530065,0.142222222 8.79679739,0.142222222" id="Fill-3" fill="#D60A29" mask="url(#mask-2)"></path>
                    </g>
                    <path d="M23.8189542,0.0068627451 C25.9584967,0.0068627451 27.6934641,1.70588235 27.6934641,3.87875817 C27.6934641,6.06013072 25.9127451,7.79901961 23.8189542,7.79901961 C21.6464052,7.79901961 19.9460784,5.94346405 19.9460784,3.87875817 C19.9460784,1.78300654 21.6813725,0.0068627451 23.8189542,0.0068627451" id="Fill-6" fill="#D60A29"></path>
                    <mask id="mask-4" fill="white">
                        <use xlink:href="#path-3"></use>
                    </mask>
                    <g id="Clip-9"></g>
                    <polygon id="Fill-8" fill="#D60A29" mask="url(#mask-4)" points="20.4872549 30.4447712 27.1509804 30.4447712 27.1509804 9.44771242 20.4872549 9.44771242"></polygon>
                    <path d="M58.4593137,0.0068627451 C60.6011438,0.0068627451 62.3367647,1.70588235 62.3367647,3.87875817 C62.3367647,6.06013072 60.5544118,7.79901961 58.4593137,7.79901961 C56.2877451,7.79901961 54.5877451,5.94346405 54.5877451,3.87875817 C54.5877451,1.78300654 56.3243464,0.0068627451 58.4593137,0.0068627451" id="Fill-10" fill="#D60A29" mask="url(#mask-4)"></path>
                    <polygon id="Fill-11" fill="#D60A29" mask="url(#mask-4)" points="55.1294118 30.4447712 61.7924837 30.4447712 61.7924837 9.44771242 55.1294118 9.44771242"></polygon>
                    <polygon id="Fill-12" fill="#D60A29" mask="url(#mask-4)" points="66.3721895 3.87862745 73.035915 3.87862745 73.035915 9.44954248 76.8636928 9.44954248 76.8636928 14.4191503 73.035915 14.4191503 73.035915 30.4446405 66.3721895 30.4446405"></polygon>
                    <polygon id="Fill-13" fill="#D60A29" mask="url(#mask-4)" points="131.816078 20.4174837 140.633399 30.4446078 132.690915 30.4446078 125.783725 21.8720588 125.783725 30.4446078 119.120654 30.4446078 119.120654 0.226960784 125.783725 0.226960784 125.783725 18.954085 133.400719 9.44754902 140.889935 9.44754902"></polygon>
                    <path d="M90.1181373,31.0067974 C84.2410131,31.0067974 79.5746732,26.2156209 79.5746732,20.4724837 L79.570098,9.44764706 L86.0148693,9.44764706 L86.0148693,20.6930719 C86.0148693,23.1483007 87.878268,24.9659477 90.1315359,24.9659477 C92.5478758,24.9659477 94.2478758,23.0907843 94.2478758,20.6930719 L94.2478758,9.44764706 L100.675,9.44764706 L100.662255,20.4724837 C100.662255,26.2156209 95.9968954,31.0067974 90.1181373,31.0067974" id="Fill-14" fill="#D60A29" mask="url(#mask-4)"></path>
                    <path d="M17.340915,15.4880719 C17.340915,24.0426471 10.4033333,30.9779412 1.84352941,30.9779412 L0.00562091503,30.9779412 L6.53594771e-05,24.1576797 L1.84124183,24.1576797 C6.63111111,24.1576797 10.5147712,20.276634 10.5147712,15.4880719 C10.5147712,10.699183 6.63111111,6.81846405 1.84124183,6.81846405 L0.0118300654,6.81846405 L0.00562091503,-0.000163398693 L1.84352941,-0.000163398693 C10.4033333,-0.000163398693 17.340915,6.93284314 17.340915,15.4880719" id="Fill-15" fill="#D60A29" mask="url(#mask-4)"></path>
                    <path d="M115.985392,7.92689542 L115.985392,14.5866993 L114.664477,14.5866993 C112.376895,14.5866993 110.387353,16.4553268 110.387353,18.8353922 L110.387353,30.4445425 L103.722647,30.4445425 L103.722647,18.8311438 C103.742908,12.380817 108.995196,7.92689542 114.664477,7.92689542 L115.985392,7.92689542 Z" id="Fill-16" fill="#D60A29" mask="url(#mask-4)"></path>
                    <path d="M58.4371242,40.4314379 C58.4371242,39.7494118 57.9511765,39.2549673 57.2946405,39.2549673 L55.9224183,39.2549673 L55.9224183,41.6079085 L57.2946405,41.6079085 C57.9511765,41.6079085 58.4371242,41.1049673 58.4371242,40.4314379 M59.2214379,40.4314379 C59.2214379,41.5141176 58.3946405,42.3497386 57.2946405,42.3497386 L55.9224183,42.3497386 L55.9224183,44.4811111 L55.129281,44.4811111 L55.129281,38.5131373 L57.2946405,38.5131373 C58.3946405,38.5131373 59.2214379,39.3402614 59.2214379,40.4314379" id="Fill-17" fill="#FFFFFF" mask="url(#mask-4)"></path>
                    <path d="M71.3184967,42.4006536 L70.2443137,39.4594771 L69.1786275,42.4006536 L71.3184967,42.4006536 Z M71.5913725,43.1424837 L68.9060784,43.1424837 L68.4198039,44.4810458 L67.5760131,44.4810458 L69.8008497,38.5130719 L70.6962745,38.5130719 L72.9211111,44.4810458 L72.0769935,44.4810458 L71.5913725,43.1424837 Z" id="Fill-18" fill="#FFFFFF" mask="url(#mask-4)"></path>
                    <path d="M82.8778431,41.4801307 L84.4719608,41.4801307 C85.0601961,41.4801307 85.5376471,40.9768627 85.5376471,40.3631373 C85.5376471,39.7494118 85.0601961,39.2549673 84.4719608,39.2549673 L82.8778431,39.2549673 L82.8778431,41.4801307 Z M84.2843791,42.1961438 L82.8778431,42.1961438 L82.8778431,44.4811111 L82.0850327,44.4811111 L82.0850327,38.5131373 L84.4719608,38.5131373 C85.4948366,38.5131373 86.3304575,39.3402614 86.3304575,40.3631373 C86.3304575,41.147451 85.8105229,41.8383007 85.094183,42.0938562 L86.500719,44.4811111 L85.6229412,44.4811111 L84.2843791,42.1961438 Z" id="Fill-19" fill="#FFFFFF" mask="url(#mask-4)"></path>
                    <polygon id="Fill-20" fill="#FFFFFF" mask="url(#mask-4)" points="99.5468954 39.2635294 97.7821895 39.2635294 97.7821895 44.4808497 96.9978758 44.4808497 96.9978758 39.2635294 95.2416667 39.2635294 95.2416667 38.5132026 99.5468954 38.5132026"></polygon>
                    <polygon id="Fill-21" fill="#FFFFFF" mask="url(#mask-4)" points="113.244804 38.5131046 113.244804 44.4810784 112.605261 44.4810784 109.536307 40.0222549 109.536307 44.4810784 108.743497 44.4810784 108.743497 38.5131046 109.383039 38.5131046 112.451993 42.9634314 112.451993 38.5131046"></polygon>
                    <polygon id="Fill-22" fill="#FFFFFF" mask="url(#mask-4)" points="126.618268 43.7308497 126.618268 44.4808497 123.054869 44.4808497 123.054869 38.5132026 126.575784 38.5132026 126.575784 39.2635294 123.84768 39.2635294 123.84768 41.0962092 126.362712 41.0962092 126.362712 41.8380392 123.84768 41.8380392 123.84768 43.7308497"></polygon>
                    <path d="M136.82719,41.4801307 L138.421307,41.4801307 C139.009869,41.4801307 139.486993,40.9768627 139.486993,40.3631373 C139.486993,39.7494118 139.009869,39.2549673 138.421307,39.2549673 L136.82719,39.2549673 L136.82719,41.4801307 Z M138.233725,42.1961438 L136.82719,42.1961438 L136.82719,44.4811111 L136.034379,44.4811111 L136.034379,38.5131373 L138.421307,38.5131373 C139.44451,38.5131373 140.279804,39.3402614 140.279804,40.3631373 C140.279804,41.147451 139.759869,41.8383007 139.043529,42.0938562 L140.450392,44.4811111 L139.572288,44.4811111 L138.233725,42.1961438 Z" id="Fill-23" fill="#FFFFFF" mask="url(#mask-4)"></path>
                </g>
            </g>
        </g>
    </g>
</svg>