<?xml version="1.0" encoding="utf-8"?>
<!-- Generator: Adobe Illustrator 24.0.2, SVG Export Plug-In . SVG Version: 6.00 Build 0)  -->
<svg version="1.1" id="katman_1" xmlns="http://www.w3.org/2000/svg" xmlns:xlink="http://www.w3.org/1999/xlink" x="0px" y="0px"
	 viewBox="0 0 141 50" style="enable-background:new 0 0 141 50;" xml:space="preserve">
<style type="text/css">
	.st0{fill-rule:evenodd;clip-rule:evenodd;fill:#CC0033;}
	.st1{filter:url(#Adobe_OpacityMaskFilter);}
	.st2{fill-rule:evenodd;clip-rule:evenodd;fill:#FFFFFF;}
	.st3{mask:url(#mask-2_1_);fill-rule:evenodd;clip-rule:evenodd;fill:#CC0033;}
	.st4{filter:url(#Adobe_OpacityMaskFilter_1_);}
	.st5{mask:url(#mask-4_1_);fill-rule:evenodd;clip-rule:evenodd;fill:#CC0033;}
	.st6{filter:url(#Adobe_OpacityMaskFilter_2_);}
	.st7{mask:url(#mask-4_2_);fill-rule:evenodd;clip-rule:evenodd;fill:#CC0033;}
	.st8{filter:url(#Adobe_OpacityMaskFilter_3_);}
	.st9{mask:url(#mask-4_3_);fill-rule:evenodd;clip-rule:evenodd;fill:#CC0033;}
	.st10{filter:url(#Adobe_OpacityMaskFilter_4_);}
	.st11{mask:url(#mask-4_4_);fill-rule:evenodd;clip-rule:evenodd;fill:#CC0033;}
	.st12{filter:url(#Adobe_OpacityMaskFilter_5_);}
	.st13{mask:url(#mask-4_5_);fill-rule:evenodd;clip-rule:evenodd;fill:#CC0033;}
	.st14{filter:url(#Adobe_OpacityMaskFilter_6_);}
	.st15{mask:url(#mask-4_6_);fill-rule:evenodd;clip-rule:evenodd;fill:#CC0033;}
	.st16{filter:url(#Adobe_OpacityMaskFilter_7_);}
	.st17{mask:url(#mask-4_7_);fill-rule:evenodd;clip-rule:evenodd;fill:#CC0033;}
	.st18{filter:url(#Adobe_OpacityMaskFilter_8_);}
	.st19{mask:url(#mask-4_8_);fill-rule:evenodd;clip-rule:evenodd;fill:#CC0033;}
	.st20{filter:url(#Adobe_OpacityMaskFilter_9_);}
	.st21{mask:url(#mask-4_9_);fill-rule:evenodd;clip-rule:evenodd;fill:#330066;}
	.st22{filter:url(#Adobe_OpacityMaskFilter_10_);}
	.st23{mask:url(#mask-4_10_);fill-rule:evenodd;clip-rule:evenodd;fill:#330066;}
	.st24{filter:url(#Adobe_OpacityMaskFilter_11_);}
	.st25{mask:url(#mask-4_11_);fill-rule:evenodd;clip-rule:evenodd;fill:#330066;}
	.st26{filter:url(#Adobe_OpacityMaskFilter_12_);}
	.st27{mask:url(#mask-4_12_);fill-rule:evenodd;clip-rule:evenodd;fill:#330066;}
	.st28{filter:url(#Adobe_OpacityMaskFilter_13_);}
	.st29{mask:url(#mask-4_13_);fill-rule:evenodd;clip-rule:evenodd;fill:#330066;}
	.st30{filter:url(#Adobe_OpacityMaskFilter_14_);}
	.st31{mask:url(#mask-4_14_);fill-rule:evenodd;clip-rule:evenodd;fill:#330066;}
	.st32{filter:url(#Adobe_OpacityMaskFilter_15_);}
	.st33{mask:url(#mask-4_15_);fill-rule:evenodd;clip-rule:evenodd;fill:#330066;}
</style>
<title>3950616D-C5D9-47B8-90EE-77FA508B0037</title>
<desc>Created with sketchtool.</desc>
<g id="Page-1">
	<g id="Homepage-7.4.1" transform="translate(-649.000000, -89.000000)">
		<g id="Header-1" transform="translate(0.000000, 70.000000)">
			<g id="logo_x2F_digiturk_x5F_partner" transform="translate(649.000000, 19.000000)">
				<path id="Fill-1" class="st0" d="M41.1,25c-2.7,0-4.9-2.2-4.9-4.9c0-2.7,2.2-4.9,4.9-4.9c2.7,0,4.9,2.2,4.9,4.9
					C46.1,22.8,43.9,25,41.1,25 M41.1,9.1c-5.8,0-10.9,4.7-10.9,10.9c0,6,4.9,10.9,10.9,10.9c6,0,10.9-4.9,10.9-10.9
					C52.1,14,47.2,9.1,41.1,9.1"/>
				<g id="Group-5" transform="translate(32.352941, 32.376144)">
					<g id="Clip-4">
					</g>
					<defs>
						<filter id="Adobe_OpacityMaskFilter" filterUnits="userSpaceOnUse" x="0.2" y="0.1" width="17.2" height="17.2">
							<feColorMatrix  type="matrix" values="1 0 0 0 0  0 1 0 0 0  0 0 1 0 0  0 0 0 1 0"/>
						</filter>
					</defs>
					<mask maskUnits="userSpaceOnUse" x="0.2" y="0.1" width="17.2" height="17.2" id="mask-2_1_">
						<g class="st1">
							<polygon id="path-1_1_" class="st2" points="0.2,0.1 17.4,0.1 17.4,17.3 0.2,17.3 							"/>
						</g>
					</mask>
					<path id="Fill-3" class="st3" d="M8.8,12.3c-1.9,0-3.5-1.6-3.5-3.5c0-1.9,1.6-3.5,3.5-3.5c2,0,3.5,1.6,3.5,3.5
						C12.3,10.7,10.8,12.3,8.8,12.3 M8.8,0.1C4.1,0.1,0.2,4,0.2,8.7c0,4.7,3.8,8.6,8.6,8.6c4.8,0,8.6-3.8,8.6-8.6
						C17.4,4,13.6,0.1,8.8,0.1"/>
				</g>
				<path id="Fill-6" class="st0" d="M23.8,0c2.1,0,3.9,1.7,3.9,3.9c0,2.2-1.8,3.9-3.9,3.9c-2.2,0-3.9-1.9-3.9-3.9
					C19.9,1.8,21.7,0,23.8,0"/>
				<g id="Clip-9">
				</g>
				<defs>
					<filter id="Adobe_OpacityMaskFilter_1_" filterUnits="userSpaceOnUse" x="20.5" y="9.4" width="6.7" height="21">
						<feColorMatrix  type="matrix" values="1 0 0 0 0  0 1 0 0 0  0 0 1 0 0  0 0 0 1 0"/>
					</filter>
				</defs>
				<mask maskUnits="userSpaceOnUse" x="20.5" y="9.4" width="6.7" height="21" id="mask-4_1_">
					<g class="st4">
						<polygon id="path-3_1_" class="st2" points="0,49.7 140.9,49.7 140.9,0 0,0 						"/>
					</g>
				</mask>
				<polygon id="Fill-8" class="st5" points="20.5,30.4 27.2,30.4 27.2,9.4 20.5,9.4 				"/>
				<defs>
					<filter id="Adobe_OpacityMaskFilter_2_" filterUnits="userSpaceOnUse" x="54.6" y="0" width="7.7" height="7.8">
						<feColorMatrix  type="matrix" values="1 0 0 0 0  0 1 0 0 0  0 0 1 0 0  0 0 0 1 0"/>
					</filter>
				</defs>
				<mask maskUnits="userSpaceOnUse" x="54.6" y="0" width="7.7" height="7.8" id="mask-4_2_">
					<g class="st6">
						<polygon id="path-3_2_" class="st2" points="0,49.7 140.9,49.7 140.9,0 0,0 						"/>
					</g>
				</mask>
				<path id="Fill-10" class="st7" d="M58.5,0c2.1,0,3.9,1.7,3.9,3.9c0,2.2-1.8,3.9-3.9,3.9c-2.2,0-3.9-1.9-3.9-3.9
					C54.6,1.8,56.3,0,58.5,0"/>
				<defs>
					<filter id="Adobe_OpacityMaskFilter_3_" filterUnits="userSpaceOnUse" x="55.1" y="9.4" width="6.7" height="21">
						<feColorMatrix  type="matrix" values="1 0 0 0 0  0 1 0 0 0  0 0 1 0 0  0 0 0 1 0"/>
					</filter>
				</defs>
				<mask maskUnits="userSpaceOnUse" x="55.1" y="9.4" width="6.7" height="21" id="mask-4_3_">
					<g class="st8">
						<polygon id="path-3_3_" class="st2" points="0,49.7 140.9,49.7 140.9,0 0,0 						"/>
					</g>
				</mask>
				<polygon id="Fill-11" class="st9" points="55.1,30.4 61.8,30.4 61.8,9.4 55.1,9.4 				"/>
				<defs>
					<filter id="Adobe_OpacityMaskFilter_4_" filterUnits="userSpaceOnUse" x="66.4" y="3.9" width="10.5" height="26.6">
						<feColorMatrix  type="matrix" values="1 0 0 0 0  0 1 0 0 0  0 0 1 0 0  0 0 0 1 0"/>
					</filter>
				</defs>
				<mask maskUnits="userSpaceOnUse" x="66.4" y="3.9" width="10.5" height="26.6" id="mask-4_4_">
					<g class="st10">
						<polygon id="path-3_4_" class="st2" points="0,49.7 140.9,49.7 140.9,0 0,0 						"/>
					</g>
				</mask>
				<polygon id="Fill-12" class="st11" points="66.4,3.9 73,3.9 73,9.4 76.9,9.4 76.9,14.4 73,14.4 73,30.4 66.4,30.4 				"/>
				<defs>
					<filter id="Adobe_OpacityMaskFilter_5_" filterUnits="userSpaceOnUse" x="119.1" y="0.2" width="21.8" height="30.2">
						<feColorMatrix  type="matrix" values="1 0 0 0 0  0 1 0 0 0  0 0 1 0 0  0 0 0 1 0"/>
					</filter>
				</defs>
				<mask maskUnits="userSpaceOnUse" x="119.1" y="0.2" width="21.8" height="30.2" id="mask-4_5_">
					<g class="st12">
						<polygon id="path-3_5_" class="st2" points="0,49.7 140.9,49.7 140.9,0 0,0 						"/>
					</g>
				</mask>
				<polygon id="Fill-13" class="st13" points="131.8,20.4 140.6,30.4 132.7,30.4 125.8,21.9 125.8,30.4 119.1,30.4 119.1,0.2 
					125.8,0.2 125.8,19 133.4,9.4 140.9,9.4 				"/>
				<defs>
					<filter id="Adobe_OpacityMaskFilter_6_" filterUnits="userSpaceOnUse" x="79.6" y="9.4" width="21.1" height="21.6">
						<feColorMatrix  type="matrix" values="1 0 0 0 0  0 1 0 0 0  0 0 1 0 0  0 0 0 1 0"/>
					</filter>
				</defs>
				<mask maskUnits="userSpaceOnUse" x="79.6" y="9.4" width="21.1" height="21.6" id="mask-4_6_">
					<g class="st14">
						<polygon id="path-3_6_" class="st2" points="0,49.7 140.9,49.7 140.9,0 0,0 						"/>
					</g>
				</mask>
				<path id="Fill-14" class="st15" d="M90.1,31c-5.9,0-10.5-4.8-10.5-10.5l0-11H86v11.2c0,2.5,1.9,4.3,4.1,4.3
					c2.4,0,4.1-1.9,4.1-4.3V9.4h6.4l0,11C100.7,26.2,96,31,90.1,31"/>
				<defs>
					<filter id="Adobe_OpacityMaskFilter_7_" filterUnits="userSpaceOnUse" x="0" y="0" width="17.3" height="31">
						<feColorMatrix  type="matrix" values="1 0 0 0 0  0 1 0 0 0  0 0 1 0 0  0 0 0 1 0"/>
					</filter>
				</defs>
				<mask maskUnits="userSpaceOnUse" x="0" y="0" width="17.3" height="31" id="mask-4_7_">
					<g class="st16">
						<polygon id="path-3_7_" class="st2" points="0,49.7 140.9,49.7 140.9,0 0,0 						"/>
					</g>
				</mask>
				<path id="Fill-15" class="st17" d="M17.3,15.5C17.3,24,10.4,31,1.8,31H0l0-6.8h1.8c4.8,0,8.7-3.9,8.7-8.7c0-4.8-3.9-8.7-8.7-8.7
					H0L0,0h1.8C10.4,0,17.3,6.9,17.3,15.5"/>
				<defs>
					<filter id="Adobe_OpacityMaskFilter_8_" filterUnits="userSpaceOnUse" x="103.7" y="7.9" width="12.3" height="22.5">
						<feColorMatrix  type="matrix" values="1 0 0 0 0  0 1 0 0 0  0 0 1 0 0  0 0 0 1 0"/>
					</filter>
				</defs>
				<mask maskUnits="userSpaceOnUse" x="103.7" y="7.9" width="12.3" height="22.5" id="mask-4_8_">
					<g class="st18">
						<polygon id="path-3_8_" class="st2" points="0,49.7 140.9,49.7 140.9,0 0,0 						"/>
					</g>
				</mask>
				<path id="Fill-16" class="st19" d="M116,7.9v6.7h-1.3c-2.3,0-4.3,1.9-4.3,4.2v11.6h-6.7V18.8c0-6.5,5.3-10.9,10.9-10.9H116z"/>
				<defs>
					<filter id="Adobe_OpacityMaskFilter_9_" filterUnits="userSpaceOnUse" x="55.1" y="38.5" width="4.1" height="6">
						<feColorMatrix  type="matrix" values="1 0 0 0 0  0 1 0 0 0  0 0 1 0 0  0 0 0 1 0"/>
					</filter>
				</defs>
				<mask maskUnits="userSpaceOnUse" x="55.1" y="38.5" width="4.1" height="6" id="mask-4_9_">
					<g class="st20">
						<polygon id="path-3_9_" class="st2" points="0,49.7 140.9,49.7 140.9,0 0,0 						"/>
					</g>
				</mask>
				<path id="Fill-17" class="st21" d="M58.4,40.4c0-0.7-0.5-1.2-1.1-1.2h-1.4v2.4h1.4C58,41.6,58.4,41.1,58.4,40.4 M59.2,40.4
					c0,1.1-0.8,1.9-1.9,1.9h-1.4v2.1h-0.8v-6h2.2C58.4,38.5,59.2,39.3,59.2,40.4"/>
				<defs>
					<filter id="Adobe_OpacityMaskFilter_10_" filterUnits="userSpaceOnUse" x="67.6" y="38.5" width="5.3" height="6">
						<feColorMatrix  type="matrix" values="1 0 0 0 0  0 1 0 0 0  0 0 1 0 0  0 0 0 1 0"/>
					</filter>
				</defs>
				<mask maskUnits="userSpaceOnUse" x="67.6" y="38.5" width="5.3" height="6" id="mask-4_10_">
					<g class="st22">
						<polygon id="path-3_10_" class="st2" points="0,49.7 140.9,49.7 140.9,0 0,0 						"/>
					</g>
				</mask>
				<path id="Fill-18" class="st23" d="M71.3,42.4l-1.1-2.9l-1.1,2.9H71.3z M71.6,43.1h-2.7l-0.5,1.3h-0.8l2.2-6h0.9l2.2,6h-0.8
					L71.6,43.1z"/>
				<defs>
					<filter id="Adobe_OpacityMaskFilter_11_" filterUnits="userSpaceOnUse" x="82.1" y="38.5" width="4.4" height="6">
						<feColorMatrix  type="matrix" values="1 0 0 0 0  0 1 0 0 0  0 0 1 0 0  0 0 0 1 0"/>
					</filter>
				</defs>
				<mask maskUnits="userSpaceOnUse" x="82.1" y="38.5" width="4.4" height="6" id="mask-4_11_">
					<g class="st24">
						<polygon id="path-3_11_" class="st2" points="0,49.7 140.9,49.7 140.9,0 0,0 						"/>
					</g>
				</mask>
				<path id="Fill-19" class="st25" d="M82.9,41.5h1.6c0.6,0,1.1-0.5,1.1-1.1c0-0.6-0.5-1.1-1.1-1.1h-1.6V41.5z M84.3,42.2h-1.4v2.3
					h-0.8v-6h2.4c1,0,1.9,0.8,1.9,1.8c0,0.8-0.5,1.5-1.2,1.7l1.4,2.4h-0.9L84.3,42.2z"/>
				<defs>
					<filter id="Adobe_OpacityMaskFilter_12_" filterUnits="userSpaceOnUse" x="95.2" y="38.5" width="4.3" height="6">
						<feColorMatrix  type="matrix" values="1 0 0 0 0  0 1 0 0 0  0 0 1 0 0  0 0 0 1 0"/>
					</filter>
				</defs>
				<mask maskUnits="userSpaceOnUse" x="95.2" y="38.5" width="4.3" height="6" id="mask-4_12_">
					<g class="st26">
						<polygon id="path-3_12_" class="st2" points="0,49.7 140.9,49.7 140.9,0 0,0 						"/>
					</g>
				</mask>
				<polygon id="Fill-20" class="st27" points="99.5,39.3 97.8,39.3 97.8,44.5 97,44.5 97,39.3 95.2,39.3 95.2,38.5 99.5,38.5 				
					"/>
				<defs>
					<filter id="Adobe_OpacityMaskFilter_13_" filterUnits="userSpaceOnUse" x="108.7" y="38.5" width="4.5" height="6">
						<feColorMatrix  type="matrix" values="1 0 0 0 0  0 1 0 0 0  0 0 1 0 0  0 0 0 1 0"/>
					</filter>
				</defs>
				<mask maskUnits="userSpaceOnUse" x="108.7" y="38.5" width="4.5" height="6" id="mask-4_13_">
					<g class="st28">
						<polygon id="path-3_13_" class="st2" points="0,49.7 140.9,49.7 140.9,0 0,0 						"/>
					</g>
				</mask>
				<polygon id="Fill-21" class="st29" points="113.2,38.5 113.2,44.5 112.6,44.5 109.5,40 109.5,44.5 108.7,44.5 108.7,38.5 
					109.4,38.5 112.5,43 112.5,38.5 				"/>
				<defs>
					<filter id="Adobe_OpacityMaskFilter_14_" filterUnits="userSpaceOnUse" x="123.1" y="38.5" width="3.6" height="6">
						<feColorMatrix  type="matrix" values="1 0 0 0 0  0 1 0 0 0  0 0 1 0 0  0 0 0 1 0"/>
					</filter>
				</defs>
				<mask maskUnits="userSpaceOnUse" x="123.1" y="38.5" width="3.6" height="6" id="mask-4_14_">
					<g class="st30">
						<polygon id="path-3_14_" class="st2" points="0,49.7 140.9,49.7 140.9,0 0,0 						"/>
					</g>
				</mask>
				<polygon id="Fill-22" class="st31" points="126.6,43.7 126.6,44.5 123.1,44.5 123.1,38.5 126.6,38.5 126.6,39.3 123.8,39.3 
					123.8,41.1 126.4,41.1 126.4,41.8 123.8,41.8 123.8,43.7 				"/>
				<defs>
					<filter id="Adobe_OpacityMaskFilter_15_" filterUnits="userSpaceOnUse" x="136" y="38.5" width="4.4" height="6">
						<feColorMatrix  type="matrix" values="1 0 0 0 0  0 1 0 0 0  0 0 1 0 0  0 0 0 1 0"/>
					</filter>
				</defs>
				<mask maskUnits="userSpaceOnUse" x="136" y="38.5" width="4.4" height="6" id="mask-4_15_">
					<g class="st32">
						<polygon id="path-3_15_" class="st2" points="0,49.7 140.9,49.7 140.9,0 0,0 						"/>
					</g>
				</mask>
				<path id="Fill-23" class="st33" d="M136.8,41.5h1.6c0.6,0,1.1-0.5,1.1-1.1c0-0.6-0.5-1.1-1.1-1.1h-1.6V41.5z M138.2,42.2h-1.4
					v2.3H136v-6h2.4c1,0,1.9,0.8,1.9,1.8c0,0.8-0.5,1.5-1.2,1.7l1.4,2.4h-0.9L138.2,42.2z"/>
			</g>
		</g>
	</g>
</g>
</svg>
